<?xml version="1.0" encoding="UTF-8" standalone="no"?>
<!DOCTYPE svg PUBLIC "-//W3C//DTD SVG 1.1//EN"
 "http://www.w3.org/Graphics/SVG/1.1/DTD/svg11.dtd">
<!-- Generated by graphviz version 2.26.3 (20100126.1600)
 -->
<!-- Title: gengraph Pages: 1 -->
<svg width="2201pt" height="332pt"
 viewBox="0.00 0.00 2201.10 332.00" xmlns="http://www.w3.org/2000/svg" xmlns:xlink="http://www.w3.org/1999/xlink">
<g id="graph1" class="graph" transform="scale(1 1) rotate(0) translate(4 328)">
<title>gengraph</title>
<polygon fill="white" stroke="white" points="-4,5 -4,-328 2198.1,-328 2198.1,5 -4,5"/>
<!-- at_exeCmdCiupdate -->
<g id="node1" class="node"><title>at_exeCmdCiupdate</title>
<polygon fill="#dddddd" stroke="black" stroke-width="2" points="1603.54,-324 1449.54,-324 1449.54,-288 1603.54,-288 1603.54,-324"/>
<text text-anchor="middle" x="1526.54" y="-301.9" font-family="Times Roman,serif" font-size="14.00">at_exeCmdCiupdate</text>
</g>
<!-- pvPortZalloc -->
<g id="node3" class="node"><title>pvPortZalloc</title>
<ellipse fill="none" stroke="black" cx="1697.54" cy="-18" rx="70.878" ry="18"/>
<text text-anchor="middle" x="1697.54" y="-13.9" font-family="Times Roman,serif" font-size="14.00">pvPortZalloc</text>
</g>
<!-- at_exeCmdCiupdate&#45;&gt;pvPortZalloc -->
<g id="edge2" class="edge"><title>at_exeCmdCiupdate&#45;&gt;pvPortZalloc</title>
<path fill="none" stroke="black" d="M1603.68,-294.746C1762.62,-269.778 2117.45,-204.242 2185.54,-108 2194.78,-94.9386 2196.22,-83.9196 2185.54,-72 2158.89,-42.2352 1909.52,-27.1041 1777.96,-21.1371"/>
<polygon fill="black" stroke="black" points="1778.07,-17.6386 1767.92,-20.6893 1777.76,-24.6316 1778.07,-17.6386"/>
</g>
<!-- espconn_port -->
<g id="node5" class="node"><title>espconn_port</title>
<ellipse fill="none" stroke="black" cx="1415.54" cy="-234" rx="75.2406" ry="18"/>
<text text-anchor="middle" x="1415.54" y="-229.9" font-family="Times Roman,serif" font-size="14.00">espconn_port</text>
</g>
<!-- at_exeCmdCiupdate&#45;&gt;espconn_port -->
<g id="edge4" class="edge"><title>at_exeCmdCiupdate&#45;&gt;espconn_port</title>
<path fill="none" stroke="black" d="M1498.53,-287.831C1483.93,-278.359 1465.93,-266.684 1450.43,-256.63"/>
<polygon fill="black" stroke="black" points="1451.93,-253.432 1441.64,-250.926 1448.12,-259.305 1451.93,-253.432"/>
</g>
<!-- espconn_gethostbyname -->
<g id="node7" class="node"><title>espconn_gethostbyname</title>
<ellipse fill="none" stroke="black" cx="1638.54" cy="-234" rx="130.137" ry="18"/>
<text text-anchor="middle" x="1638.54" y="-229.9" font-family="Times Roman,serif" font-size="14.00">espconn_gethostbyname</text>
</g>
<!-- at_exeCmdCiupdate&#45;&gt;espconn_gethostbyname -->
<g id="edge6" class="edge"><title>at_exeCmdCiupdate&#45;&gt;espconn_gethostbyname</title>
<path fill="none" stroke="black" d="M1554.8,-287.831C1569.21,-278.568 1586.9,-267.198 1602.3,-257.297"/>
<polygon fill="black" stroke="black" points="1604.54,-260.017 1611.06,-251.665 1600.76,-254.129 1604.54,-260.017"/>
</g>
<!-- upServer_dns_found -->
<g id="node9" class="node"><title>upServer_dns_found</title>
<ellipse fill="none" stroke="black" cx="745.543" cy="-234" rx="109.791" ry="18"/>
<text text-anchor="middle" x="745.543" y="-229.9" font-family="Times Roman,serif" font-size="14.00">upServer_dns_found</text>
</g>
<!-- at_exeCmdCiupdate&#45;&gt;upServer_dns_found -->
<g id="edge8" class="edge"><title>at_exeCmdCiupdate&#45;&gt;upServer_dns_found</title>
<path fill="none" stroke="black" d="M1449.52,-298.899C1309.16,-285.959 1011.51,-258.52 851.914,-243.806"/>
<polygon fill="black" stroke="black" points="851.883,-240.289 841.604,-242.856 851.24,-247.259 851.883,-240.289"/>
</g>
<!-- uart0_sendStr -->
<g id="node11" class="node"><title>uart0_sendStr</title>
<ellipse fill="none" stroke="black" cx="302.543" cy="-18" rx="80.1057" ry="18"/>
<text text-anchor="middle" x="302.543" y="-13.9" font-family="Times Roman,serif" font-size="14.00">uart0_sendStr</text>
</g>
<!-- upServer_dns_found&#45;&gt;uart0_sendStr -->
<g id="edge10" class="edge"><title>upServer_dns_found&#45;&gt;uart0_sendStr</title>
<path fill="none" stroke="black" d="M660.862,-222.35C543.849,-204.32 342.161,-165.614 298.543,-108 285.338,-90.5594 287.756,-65.3118 292.667,-45.9937"/>
<polygon fill="black" stroke="black" points="296.074,-46.8104 295.481,-36.2322 289.348,-44.8718 296.074,-46.8104"/>
</g>
<!-- ets_memcpy -->
<g id="node13" class="node"><title>ets_memcpy</title>
<ellipse fill="none" stroke="black" cx="1242.54" cy="-18" rx="70.878" ry="18"/>
<text text-anchor="middle" x="1242.54" y="-13.9" font-family="Times Roman,serif" font-size="14.00">ets_memcpy</text>
</g>
<!-- upServer_dns_found&#45;&gt;ets_memcpy -->
<g id="edge12" class="edge"><title>upServer_dns_found&#45;&gt;ets_memcpy</title>
<path fill="none" stroke="black" d="M761.898,-216.045C770.412,-206 780.486,-192.927 787.543,-180 811.924,-135.337 785.692,-103.641 825.543,-72 882.796,-26.5416 1080.3,-47.1794 1152.54,-36 1160.8,-34.7215 1169.46,-33.2109 1178,-31.6172"/>
<polygon fill="black" stroke="black" points="1178.78,-35.0318 1187.95,-29.7169 1177.47,-28.1562 1178.78,-35.0318"/>
</g>
<!-- espconn_regist_connectcb -->
<g id="node15" class="node"><title>espconn_regist_connectcb</title>
<ellipse fill="none" stroke="black" cx="1355.54" cy="-162" rx="136.197" ry="18"/>
<text text-anchor="middle" x="1355.54" y="-157.9" font-family="Times Roman,serif" font-size="14.00">espconn_regist_connectcb</text>
</g>
<!-- upServer_dns_found&#45;&gt;espconn_regist_connectcb -->
<g id="edge14" class="edge"><title>upServer_dns_found&#45;&gt;espconn_regist_connectcb</title>
<path fill="none" stroke="black" d="M836.015,-223.708C929.737,-212.995 1080.43,-195.631 1210.54,-180 1222.15,-178.605 1234.28,-177.129 1246.37,-175.647"/>
<polygon fill="black" stroke="black" points="1247,-179.095 1256.5,-174.401 1246.14,-172.148 1247,-179.095"/>
</g>
<!-- at_upDate_connect_cb -->
<g id="node17" class="node"><title>at_upDate_connect_cb</title>
<ellipse fill="none" stroke="black" cx="1081.54" cy="-162" rx="120.215" ry="18"/>
<text text-anchor="middle" x="1081.54" y="-157.9" font-family="Times Roman,serif" font-size="14.00">at_upDate_connect_cb</text>
</g>
<!-- upServer_dns_found&#45;&gt;at_upDate_connect_cb -->
<g id="edge16" class="edge"><title>upServer_dns_found&#45;&gt;at_upDate_connect_cb</title>
<path fill="none" stroke="black" d="M812.327,-219.689C867.145,-207.942 944.884,-191.284 1002.74,-178.886"/>
<polygon fill="black" stroke="black" points="1003.53,-182.296 1012.58,-176.779 1002.06,-175.452 1003.53,-182.296"/>
</g>
<!-- espconn_regist_reconcb -->
<g id="node60" class="node"><title>espconn_regist_reconcb</title>
<ellipse fill="none" stroke="black" cx="195.543" cy="-162" rx="125.079" ry="18"/>
<text text-anchor="middle" x="195.543" y="-157.9" font-family="Times Roman,serif" font-size="14.00">espconn_regist_reconcb</text>
</g>
<!-- upServer_dns_found&#45;&gt;espconn_regist_reconcb -->
<g id="edge70" class="edge"><title>upServer_dns_found&#45;&gt;espconn_regist_reconcb</title>
<path fill="none" stroke="black" d="M659.605,-222.75C561.948,-209.966 402.637,-189.111 298.442,-175.47"/>
<polygon fill="black" stroke="black" points="298.59,-171.96 288.221,-174.132 297.682,-178.901 298.59,-171.96"/>
</g>
<!-- at_upDate_recon_cb -->
<g id="node62" class="node"><title>at_upDate_recon_cb</title>
<ellipse fill="none" stroke="black" cx="126.543" cy="-90" rx="109.791" ry="18"/>
<text text-anchor="middle" x="126.543" y="-85.9" font-family="Times Roman,serif" font-size="14.00">at_upDate_recon_cb</text>
</g>
<!-- upServer_dns_found&#45;&gt;at_upDate_recon_cb -->
<g id="edge72" class="edge"><title>upServer_dns_found&#45;&gt;at_upDate_recon_cb</title>
<path fill="none" stroke="black" d="M639.011,-229.346C451.611,-220.64 80.8323,-200.873 61.5426,-180 42.2679,-159.144 66.7133,-132.481 90.9368,-113.605"/>
<polygon fill="black" stroke="black" points="93.1632,-116.311 99.0798,-107.522 88.9737,-110.703 93.1632,-116.311"/>
</g>
<!-- espconn_connect -->
<g id="node67" class="node"><title>espconn_connect</title>
<ellipse fill="none" stroke="black" cx="685.543" cy="-162" rx="93.1142" ry="18"/>
<text text-anchor="middle" x="685.543" y="-157.9" font-family="Times Roman,serif" font-size="14.00">espconn_connect</text>
</g>
<!-- upServer_dns_found&#45;&gt;espconn_connect -->
<g id="edge80" class="edge"><title>upServer_dns_found&#45;&gt;espconn_connect</title>
<path fill="none" stroke="black" d="M730.402,-215.831C723.313,-207.325 714.744,-197.042 707.003,-187.752"/>
<polygon fill="black" stroke="black" points="709.561,-185.355 700.47,-179.913 704.183,-189.836 709.561,-185.355"/>
</g>
<!-- at_upDate_connect_cb&#45;&gt;pvPortZalloc -->
<g id="edge60" class="edge"><title>at_upDate_connect_cb&#45;&gt;pvPortZalloc</title>
<path fill="none" stroke="black" d="M1168.23,-149.499C1182.36,-147.578 1196.85,-145.677 1210.54,-144 1361.81,-125.467 1408.21,-159.769 1551.54,-108 1578.67,-98.2017 1581.09,-87.3068 1605.54,-72 1623.03,-61.0539 1642.71,-49.4113 1659.37,-39.7501"/>
<polygon fill="black" stroke="black" points="1661.37,-42.6354 1668.28,-34.6035 1657.87,-36.5736 1661.37,-42.6354"/>
</g>
<!-- at_upDate_connect_cb&#45;&gt;uart0_sendStr -->
<g id="edge18" class="edge"><title>at_upDate_connect_cb&#45;&gt;uart0_sendStr</title>
<path fill="none" stroke="black" d="M970.871,-154.985C761.482,-141.6 327.592,-113.272 321.543,-108 304.398,-93.0588 300.448,-66.8907 300.319,-46.6096"/>
<polygon fill="black" stroke="black" points="303.824,-46.4254 300.565,-36.3445 296.826,-46.2577 303.824,-46.4254"/>
</g>
<!-- espconn_regist_disconcb -->
<g id="node20" class="node"><title>espconn_regist_disconcb</title>
<ellipse fill="none" stroke="black" cx="2048.54" cy="-90" rx="128.053" ry="18"/>
<text text-anchor="middle" x="2048.54" y="-85.9" font-family="Times Roman,serif" font-size="14.00">espconn_regist_disconcb</text>
</g>
<!-- at_upDate_connect_cb&#45;&gt;espconn_regist_disconcb -->
<g id="edge20" class="edge"><title>at_upDate_connect_cb&#45;&gt;espconn_regist_disconcb</title>
<path fill="none" stroke="black" d="M1166.07,-149.128C1180.87,-147.184 1196.14,-145.372 1210.54,-144 1521.1,-114.416 1600.87,-136.342 1911.54,-108 1923.61,-106.899 1936.24,-105.533 1948.76,-104.047"/>
<polygon fill="black" stroke="black" points="1949.24,-107.514 1958.75,-102.834 1948.4,-100.565 1949.24,-107.514"/>
</g>
<!-- at_upDate_discon_cb -->
<g id="node22" class="node"><title>at_upDate_discon_cb</title>
<ellipse fill="none" stroke="black" cx="442.543" cy="-90" rx="112.071" ry="18"/>
<text text-anchor="middle" x="442.543" y="-85.9" font-family="Times Roman,serif" font-size="14.00">at_upDate_discon_cb</text>
</g>
<!-- at_upDate_connect_cb&#45;&gt;at_upDate_discon_cb -->
<g id="edge22" class="edge"><title>at_upDate_connect_cb&#45;&gt;at_upDate_discon_cb</title>
<path fill="none" stroke="black" d="M978.684,-152.616C874.051,-142.756 707.293,-126.176 563.543,-108 553.745,-106.761 543.514,-105.378 533.331,-103.945"/>
<polygon fill="black" stroke="black" points="533.576,-100.445 523.182,-102.498 532.588,-107.375 533.576,-100.445"/>
</g>
<!-- vPortFree -->
<g id="node24" class="node"><title>vPortFree</title>
<ellipse fill="none" stroke="black" cx="126.543" cy="-18" rx="57.1737" ry="18"/>
<text text-anchor="middle" x="126.543" y="-13.9" font-family="Times Roman,serif" font-size="14.00">vPortFree</text>
</g>
<!-- at_upDate_connect_cb&#45;&gt;vPortFree -->
<g id="edge68" class="edge"><title>at_upDate_connect_cb&#45;&gt;vPortFree</title>
<path fill="none" stroke="black" d="M971.273,-154.855C916.108,-151.381 848.308,-147.262 787.543,-144 744.225,-141.674 37.501,-139.373 7.54256,-108 -3.50727,-96.4284 -1.12387,-85.4496 7.54256,-72 21.037,-51.0576 44.8507,-38.1458 67.6477,-30.2285"/>
<polygon fill="black" stroke="black" points="68.8652,-33.5138 77.3225,-27.1323 66.7315,-26.8469 68.8652,-33.5138"/>
</g>
<!-- espconn_regist_recvcb -->
<g id="node29" class="node"><title>espconn_regist_recvcb</title>
<ellipse fill="none" stroke="black" cx="953.543" cy="-90" rx="118.825" ry="18"/>
<text text-anchor="middle" x="953.543" y="-85.9" font-family="Times Roman,serif" font-size="14.00">espconn_regist_recvcb</text>
</g>
<!-- at_upDate_connect_cb&#45;&gt;espconn_regist_recvcb -->
<g id="edge30" class="edge"><title>at_upDate_connect_cb&#45;&gt;espconn_regist_recvcb</title>
<path fill="none" stroke="black" d="M1050.56,-144.571C1033.39,-134.914 1011.86,-122.802 993.443,-112.444"/>
<polygon fill="black" stroke="black" points="995.118,-109.37 984.686,-107.518 991.686,-115.471 995.118,-109.37"/>
</g>
<!-- at_upDate_recv -->
<g id="node31" class="node"><title>at_upDate_recv</title>
<ellipse fill="none" stroke="black" cx="1433.54" cy="-90" rx="87.0549" ry="18"/>
<text text-anchor="middle" x="1433.54" y="-85.9" font-family="Times Roman,serif" font-size="14.00">at_upDate_recv</text>
</g>
<!-- at_upDate_connect_cb&#45;&gt;at_upDate_recv -->
<g id="edge32" class="edge"><title>at_upDate_connect_cb&#45;&gt;at_upDate_recv</title>
<path fill="none" stroke="black" d="M1152.78,-147.43C1213.57,-134.993 1300.6,-117.193 1361.6,-104.715"/>
<polygon fill="black" stroke="black" points="1362.44,-108.116 1371.54,-102.683 1361.04,-101.258 1362.44,-108.116"/>
</g>
<!-- ets_sprintf -->
<g id="node40" class="node"><title>ets_sprintf</title>
<ellipse fill="none" stroke="black" cx="1546.54" cy="-18" rx="61.8445" ry="18"/>
<text text-anchor="middle" x="1546.54" y="-13.9" font-family="Times Roman,serif" font-size="14.00">ets_sprintf</text>
</g>
<!-- at_upDate_connect_cb&#45;&gt;ets_sprintf -->
<g id="edge62" class="edge"><title>at_upDate_connect_cb&#45;&gt;ets_sprintf</title>
<path fill="none" stroke="black" d="M1168.59,-149.537C1182.61,-147.621 1196.97,-145.713 1210.54,-144 1281.32,-135.07 1477.26,-156.536 1529.54,-108 1546.14,-92.5938 1549.53,-66.4781 1549.27,-46.335"/>
<polygon fill="black" stroke="black" points="1552.76,-45.9909 1548.84,-36.15 1545.77,-46.2907 1552.76,-45.9909"/>
</g>
<!-- espconn_regist_sentcb -->
<g id="node43" class="node"><title>espconn_regist_sentcb</title>
<ellipse fill="none" stroke="black" cx="1209.54" cy="-90" rx="119.02" ry="18"/>
<text text-anchor="middle" x="1209.54" y="-85.9" font-family="Times Roman,serif" font-size="14.00">espconn_regist_sentcb</text>
</g>
<!-- at_upDate_connect_cb&#45;&gt;espconn_regist_sentcb -->
<g id="edge48" class="edge"><title>at_upDate_connect_cb&#45;&gt;espconn_regist_sentcb</title>
<path fill="none" stroke="black" d="M1112.53,-144.571C1129.7,-134.914 1151.23,-122.802 1169.64,-112.444"/>
<polygon fill="black" stroke="black" points="1171.4,-115.471 1178.4,-107.518 1167.97,-109.37 1171.4,-115.471"/>
</g>
<!-- at_upDate_sent_cb -->
<g id="node45" class="node"><title>at_upDate_sent_cb</title>
<ellipse fill="none" stroke="black" cx="675.543" cy="-90" rx="103.037" ry="18"/>
<text text-anchor="middle" x="675.543" y="-85.9" font-family="Times Roman,serif" font-size="14.00">at_upDate_sent_cb</text>
</g>
<!-- at_upDate_connect_cb&#45;&gt;at_upDate_sent_cb -->
<g id="edge50" class="edge"><title>at_upDate_connect_cb&#45;&gt;at_upDate_sent_cb</title>
<path fill="none" stroke="black" d="M1003.74,-148.203C933.261,-135.704 829.746,-117.346 757.888,-104.603"/>
<polygon fill="black" stroke="black" points="758.423,-101.144 747.966,-102.844 757.201,-108.036 758.423,-101.144"/>
</g>
<!-- espconn_sent -->
<g id="node55" class="node"><title>espconn_sent</title>
<ellipse fill="none" stroke="black" cx="1690.54" cy="-90" rx="75.9375" ry="18"/>
<text text-anchor="middle" x="1690.54" y="-85.9" font-family="Times Roman,serif" font-size="14.00">espconn_sent</text>
</g>
<!-- at_upDate_connect_cb&#45;&gt;espconn_sent -->
<g id="edge64" class="edge"><title>at_upDate_connect_cb&#45;&gt;espconn_sent</title>
<path fill="none" stroke="black" d="M1167.51,-149.436C1181.87,-147.501 1196.62,-145.614 1210.54,-144 1383.46,-123.967 1428.29,-133.104 1600.54,-108 1608.19,-106.885 1616.18,-105.546 1624.09,-104.109"/>
<polygon fill="black" stroke="black" points="1624.86,-107.525 1634.05,-102.244 1623.58,-100.644 1624.86,-107.525"/>
</g>
<!-- ets_strlen -->
<g id="node57" class="node"><title>ets_strlen</title>
<ellipse fill="none" stroke="black" cx="1843.54" cy="-90" rx="59.065" ry="18"/>
<text text-anchor="middle" x="1843.54" y="-85.9" font-family="Times Roman,serif" font-size="14.00">ets_strlen</text>
</g>
<!-- at_upDate_connect_cb&#45;&gt;ets_strlen -->
<g id="edge66" class="edge"><title>at_upDate_connect_cb&#45;&gt;ets_strlen</title>
<path fill="none" stroke="black" d="M1166.44,-149.232C1181.12,-147.288 1196.26,-145.45 1210.54,-144 1460.88,-118.596 1527.18,-148.386 1775.54,-108 1780.61,-107.176 1785.85,-106.137 1791.06,-104.976"/>
<polygon fill="black" stroke="black" points="1792.09,-108.329 1801.01,-102.617 1790.48,-101.518 1792.09,-108.329"/>
</g>
<!-- at_upDate_discon_cb&#45;&gt;uart0_sendStr -->
<g id="edge28" class="edge"><title>at_upDate_discon_cb&#45;&gt;uart0_sendStr</title>
<path fill="none" stroke="black" d="M409.009,-72.7542C389.419,-62.6795 364.543,-49.8861 343.764,-39.1996"/>
<polygon fill="black" stroke="black" points="345.332,-36.0704 334.839,-34.6094 342.131,-42.2954 345.332,-36.0704"/>
</g>
<!-- at_upDate_discon_cb&#45;&gt;vPortFree -->
<g id="edge24" class="edge"><title>at_upDate_discon_cb&#45;&gt;vPortFree</title>
<path fill="none" stroke="black" d="M377.833,-75.256C320.547,-62.2036 237.771,-43.3433 183.089,-30.8841"/>
<polygon fill="black" stroke="black" points="183.746,-27.4441 173.219,-28.635 182.191,-34.2692 183.746,-27.4441"/>
</g>
<!-- os_printf -->
<g id="node26" class="node"><title>os_printf</title>
<ellipse fill="none" stroke="black" cx="454.543" cy="-18" rx="53.0059" ry="18"/>
<text text-anchor="middle" x="454.543" y="-13.9" font-family="Times Roman,serif" font-size="14.00">os_printf</text>
</g>
<!-- at_upDate_discon_cb&#45;&gt;os_printf -->
<g id="edge26" class="edge"><title>at_upDate_discon_cb&#45;&gt;os_printf</title>
<path fill="none" stroke="black" d="M445.571,-71.8314C446.854,-64.131 448.38,-54.9743 449.806,-46.4166"/>
<polygon fill="black" stroke="black" points="453.282,-46.8526 451.474,-36.4133 446.377,-45.7018 453.282,-46.8526"/>
</g>
<!-- at_upDate_recv&#45;&gt;pvPortZalloc -->
<g id="edge42" class="edge"><title>at_upDate_recv&#45;&gt;pvPortZalloc</title>
<path fill="none" stroke="black" d="M1486.33,-75.6028C1530.49,-63.5595 1593.42,-46.3977 1639.09,-33.9417"/>
<polygon fill="black" stroke="black" points="1640.12,-37.2876 1648.85,-31.2796 1638.28,-30.5342 1640.12,-37.2876"/>
</g>
<!-- at_upDate_recv&#45;&gt;uart0_sendStr -->
<g id="edge36" class="edge"><title>at_upDate_recv&#45;&gt;uart0_sendStr</title>
<path fill="none" stroke="black" d="M1372.29,-77.1245C1360.79,-75.1031 1348.83,-73.2666 1337.54,-72 919.858,-25.1444 809.937,-85.3708 392.543,-36 385.061,-35.115 377.273,-33.9429 369.546,-32.62"/>
<polygon fill="black" stroke="black" points="369.918,-29.1307 359.456,-30.8054 368.679,-36.0202 369.918,-29.1307"/>
</g>
<!-- at_upDate_recv&#45;&gt;ets_memcpy -->
<g id="edge46" class="edge"><title>at_upDate_recv&#45;&gt;ets_memcpy</title>
<path fill="none" stroke="black" d="M1391.63,-74.1993C1362.3,-63.1429 1323,-48.3281 1292.11,-36.6851"/>
<polygon fill="black" stroke="black" points="1292.99,-33.2774 1282.4,-33.0251 1290.52,-39.8275 1292.99,-33.2774"/>
</g>
<!-- at_upDate_recv&#45;&gt;os_printf -->
<g id="edge38" class="edge"><title>at_upDate_recv&#45;&gt;os_printf</title>
<path fill="none" stroke="black" d="M1372.28,-77.179C1360.78,-75.1523 1348.83,-73.2999 1337.54,-72 976.025,-30.364 878.97,-92.9232 519.543,-36 514.194,-35.1529 508.656,-34.0243 503.172,-32.7437"/>
<polygon fill="black" stroke="black" points="503.962,-29.3336 493.412,-30.3023 502.264,-36.1244 503.962,-29.3336"/>
</g>
<!-- ets_timer_disarm -->
<g id="node33" class="node"><title>ets_timer_disarm</title>
<ellipse fill="none" stroke="black" cx="1049.54" cy="-18" rx="93.8091" ry="18"/>
<text text-anchor="middle" x="1049.54" y="-13.9" font-family="Times Roman,serif" font-size="14.00">ets_timer_disarm</text>
</g>
<!-- at_upDate_recv&#45;&gt;ets_timer_disarm -->
<g id="edge34" class="edge"><title>at_upDate_recv&#45;&gt;ets_timer_disarm</title>
<path fill="none" stroke="black" d="M1368.84,-77.8676C1302.12,-65.3576 1198.07,-45.8492 1127.01,-32.5255"/>
<polygon fill="black" stroke="black" points="1127.25,-29.0091 1116.78,-30.6062 1125.96,-35.8892 1127.25,-29.0091"/>
</g>
<!-- ets_strstr -->
<g id="node37" class="node"><title>ets_strstr</title>
<ellipse fill="none" stroke="black" cx="1409.54" cy="-18" rx="57.1737" ry="18"/>
<text text-anchor="middle" x="1409.54" y="-13.9" font-family="Times Roman,serif" font-size="14.00">ets_strstr</text>
</g>
<!-- at_upDate_recv&#45;&gt;ets_strstr -->
<g id="edge40" class="edge"><title>at_upDate_recv&#45;&gt;ets_strstr</title>
<path fill="none" stroke="black" d="M1427.49,-71.8314C1424.82,-63.8406 1421.64,-54.2819 1418.69,-45.4514"/>
<polygon fill="black" stroke="black" points="1422,-44.2934 1415.51,-35.9134 1415.36,-46.5071 1422,-44.2934"/>
</g>
<!-- at_upDate_recv&#45;&gt;ets_sprintf -->
<g id="edge44" class="edge"><title>at_upDate_recv&#45;&gt;ets_sprintf</title>
<path fill="none" stroke="black" d="M1460.61,-72.7542C1475.92,-62.9958 1495.24,-50.6866 1511.68,-40.212"/>
<polygon fill="black" stroke="black" points="1513.92,-42.9347 1520.48,-34.6094 1510.16,-37.0312 1513.92,-42.9347"/>
</g>
<!-- at_upDate_sent_cb&#45;&gt;os_printf -->
<g id="edge58" class="edge"><title>at_upDate_sent_cb&#45;&gt;os_printf</title>
<path fill="none" stroke="black" d="M626.77,-74.1102C589.937,-62.1105 539.633,-45.7219 502.902,-33.7553"/>
<polygon fill="black" stroke="black" points="503.517,-30.2745 492.925,-30.5047 501.349,-36.9302 503.517,-30.2745"/>
</g>
<!-- at_upDate_sent_cb&#45;&gt;ets_timer_disarm -->
<g id="edge52" class="edge"><title>at_upDate_sent_cb&#45;&gt;ets_timer_disarm</title>
<path fill="none" stroke="black" d="M745.013,-76.6261C809.712,-64.1705 905.979,-45.6379 972.894,-32.756"/>
<polygon fill="black" stroke="black" points="973.8,-36.1457 982.958,-30.8183 972.477,-29.2719 973.8,-36.1457"/>
</g>
<!-- ets_timer_setfn -->
<g id="node48" class="node"><title>ets_timer_setfn</title>
<ellipse fill="none" stroke="black" cx="614.543" cy="-18" rx="86.1654" ry="18"/>
<text text-anchor="middle" x="614.543" y="-13.9" font-family="Times Roman,serif" font-size="14.00">ets_timer_setfn</text>
</g>
<!-- at_upDate_sent_cb&#45;&gt;ets_timer_setfn -->
<g id="edge54" class="edge"><title>at_upDate_sent_cb&#45;&gt;ets_timer_setfn</title>
<path fill="none" stroke="black" d="M660.15,-71.8314C652.943,-63.3251 644.231,-53.0419 636.36,-43.752"/>
<polygon fill="black" stroke="black" points="638.854,-41.2808 629.719,-35.9134 633.513,-45.8057 638.854,-41.2808"/>
</g>
<!-- ets_timer_arm_new -->
<g id="node50" class="node"><title>ets_timer_arm_new</title>
<ellipse fill="none" stroke="black" cx="825.543" cy="-18" rx="107.012" ry="18"/>
<text text-anchor="middle" x="825.543" y="-13.9" font-family="Times Roman,serif" font-size="14.00">ets_timer_arm_new</text>
</g>
<!-- at_upDate_sent_cb&#45;&gt;ets_timer_arm_new -->
<g id="edge56" class="edge"><title>at_upDate_sent_cb&#45;&gt;ets_timer_arm_new</title>
<path fill="none" stroke="black" d="M711.09,-72.937C731.937,-62.9307 758.468,-50.1956 780.737,-39.5068"/>
<polygon fill="black" stroke="black" points="782.49,-42.5478 789.99,-35.0651 779.46,-36.2372 782.49,-42.5478"/>
</g>
<!-- at_upDate_recon_cb&#45;&gt;uart0_sendStr -->
<g id="edge74" class="edge"><title>at_upDate_recon_cb&#45;&gt;uart0_sendStr</title>
<path fill="none" stroke="black" d="M167.807,-73.1192C193.8,-62.4855 227.458,-48.7165 254.63,-37.6006"/>
<polygon fill="black" stroke="black" points="256.017,-40.8147 263.948,-33.7889 253.367,-34.3359 256.017,-40.8147"/>
</g>
<!-- at_upDate_recon_cb&#45;&gt;vPortFree -->
<g id="edge76" class="edge"><title>at_upDate_recon_cb&#45;&gt;vPortFree</title>
<path fill="none" stroke="black" d="M126.543,-71.8314C126.543,-64.131 126.543,-54.9743 126.543,-46.4166"/>
<polygon fill="black" stroke="black" points="130.043,-46.4132 126.543,-36.4133 123.043,-46.4133 130.043,-46.4132"/>
</g>
<!-- at_upDate_recon_cb&#45;&gt;os_printf -->
<g id="edge78" class="edge"><title>at_upDate_recon_cb&#45;&gt;os_printf</title>
<path fill="none" stroke="black" d="M200.277,-76.5589C253.635,-66.4477 327.346,-51.6869 391.543,-36 395.887,-34.9385 400.382,-33.7785 404.88,-32.5754"/>
<polygon fill="black" stroke="black" points="405.953,-35.9106 414.673,-29.894 404.104,-29.1591 405.953,-35.9106"/>
</g>
</g>
</svg>
